<svg xmlns="http://www.w3.org/2000/svg" xmlns:xlink="http://www.w3.org/1999/xlink" width="158" zoomAndPan="magnify" viewBox="0 0 118.5 48.75" height="65" preserveAspectRatio="xMidYMid meet" version="1.0"><defs><g/><clipPath id="231d954fe1"><path d="M 2.589844 4.851562 L 35.421875 4.851562 L 35.421875 39.921875 L 2.589844 39.921875 Z M 2.589844 4.851562 " clip-rule="nonzero"/></clipPath></defs><g clip-path="url(#231d954fe1)"><path fill="#2563eb" d="M 14.367188 33.546875 L 17.960938 29.78125 C 19.25 30.15625 20.480469 30.628906 21.640625 31.167969 L 20.992188 31.886719 C 24.375 33.578125 27.089844 35.515625 29.257812 37.5 C 29.867188 37.132812 30.449219 36.730469 31.007812 36.296875 C 27.738281 33.285156 21.226562 28.433594 13.042969 28.261719 L 16.28125 24.875 C 17.617188 25.195312 18.890625 25.621094 20.097656 26.128906 L 19.667969 26.605469 C 25.183594 29.359375 28.914062 32.773438 31.421875 35.964844 C 31.835938 35.617188 32.234375 35.253906 32.617188 34.875 C 29.230469 30.832031 22.929688 24.957031 14.234375 23.835938 L 28.414062 10.957031 C 28.414062 10.957031 32.078125 11.445312 35.757812 14.246094 C 32.8125 8.660156 26.949219 4.851562 20.195312 4.851562 C 10.488281 4.851562 2.617188 12.722656 2.617188 22.433594 C 2.617188 32.140625 10.488281 40.011719 20.195312 40.011719 C 23.15625 40.011719 25.945312 39.28125 28.390625 37.988281 C 24.886719 35.828125 19.546875 33.25 14.367188 33.546875 " fill-opacity="1" fill-rule="nonzero"/></g><g fill="#2563eb" fill-opacity="1"><g transform="translate(42.396123, 24.196357)"><g><path d="M 5.359375 -3.171875 L 5.359375 0 L 3.28125 0 L 3.28125 -3.203125 L -0.171875 -8.953125 L 2.015625 -8.953125 L 4.421875 -4.984375 L 6.8125 -8.953125 L 8.84375 -8.953125 Z M 5.359375 -3.171875 "/></g></g></g><g fill="#2563eb" fill-opacity="1"><g transform="translate(51.631607, 24.196357)"><g><path d="M 5.40625 0.15625 C 4.46875 0.15625 3.625 -0.0390625 2.875 -0.4375 C 2.132812 -0.84375 1.550781 -1.394531 1.125 -2.09375 C 0.707031 -2.800781 0.5 -3.597656 0.5 -4.484375 C 0.5 -5.359375 0.707031 -6.144531 1.125 -6.84375 C 1.550781 -7.550781 2.132812 -8.101562 2.875 -8.5 C 3.625 -8.90625 4.46875 -9.109375 5.40625 -9.109375 C 6.332031 -9.109375 7.164062 -8.90625 7.90625 -8.5 C 8.644531 -8.101562 9.226562 -7.550781 9.65625 -6.84375 C 10.082031 -6.144531 10.296875 -5.359375 10.296875 -4.484375 C 10.296875 -3.597656 10.082031 -2.800781 9.65625 -2.09375 C 9.226562 -1.394531 8.644531 -0.84375 7.90625 -0.4375 C 7.164062 -0.0390625 6.332031 0.15625 5.40625 0.15625 Z M 5.40625 -1.609375 C 5.925781 -1.609375 6.398438 -1.726562 6.828125 -1.96875 C 7.253906 -2.21875 7.585938 -2.554688 7.828125 -2.984375 C 8.078125 -3.421875 8.203125 -3.921875 8.203125 -4.484375 C 8.203125 -5.035156 8.078125 -5.523438 7.828125 -5.953125 C 7.585938 -6.390625 7.253906 -6.726562 6.828125 -6.96875 C 6.398438 -7.21875 5.925781 -7.34375 5.40625 -7.34375 C 4.875 -7.34375 4.394531 -7.21875 3.96875 -6.96875 C 3.539062 -6.726562 3.203125 -6.390625 2.953125 -5.953125 C 2.710938 -5.523438 2.59375 -5.035156 2.59375 -4.484375 C 2.59375 -3.921875 2.710938 -3.421875 2.953125 -2.984375 C 3.203125 -2.554688 3.539062 -2.21875 3.96875 -1.96875 C 4.394531 -1.726562 4.875 -1.609375 5.40625 -1.609375 Z M 5.40625 -1.609375 "/></g></g></g><g fill="#2563eb" fill-opacity="1"><g transform="translate(63.016029, 24.196357)"><g><path d="M 5.046875 0.15625 C 3.765625 0.15625 2.765625 -0.195312 2.046875 -0.90625 C 1.335938 -1.613281 0.984375 -2.625 0.984375 -3.9375 L 0.984375 -8.953125 L 3.0625 -8.953125 L 3.0625 -4.015625 C 3.0625 -2.410156 3.726562 -1.609375 5.0625 -1.609375 C 5.707031 -1.609375 6.195312 -1.800781 6.53125 -2.1875 C 6.875 -2.582031 7.046875 -3.191406 7.046875 -4.015625 L 7.046875 -8.953125 L 9.09375 -8.953125 L 9.09375 -3.9375 C 9.09375 -2.625 8.738281 -1.613281 8.03125 -0.90625 C 7.320312 -0.195312 6.328125 0.15625 5.046875 0.15625 Z M 5.046875 0.15625 "/></g></g></g><g fill="#2563eb" fill-opacity="1"><g transform="translate(73.684137, 24.196357)"><g><path d="M 1.0625 -8.953125 L 5.125 -8.953125 C 6.101562 -8.953125 6.960938 -8.765625 7.703125 -8.390625 C 8.453125 -8.023438 9.035156 -7.503906 9.453125 -6.828125 C 9.867188 -6.160156 10.078125 -5.378906 10.078125 -4.484375 C 10.078125 -3.585938 9.867188 -2.800781 9.453125 -2.125 C 9.035156 -1.445312 8.453125 -0.921875 7.703125 -0.546875 C 6.960938 -0.179688 6.101562 0 5.125 0 L 1.0625 0 Z M 5.03125 -1.703125 C 5.925781 -1.703125 6.640625 -1.953125 7.171875 -2.453125 C 7.703125 -2.953125 7.96875 -3.628906 7.96875 -4.484375 C 7.96875 -5.335938 7.703125 -6.007812 7.171875 -6.5 C 6.640625 -7 5.925781 -7.25 5.03125 -7.25 L 3.140625 -7.25 L 3.140625 -1.703125 Z M 5.03125 -1.703125 "/></g></g></g><g fill="#2563eb" fill-opacity="1"><g transform="translate(84.838317, 24.196357)"><g><path d="M 8 -1.65625 L 8 0 L 1.0625 0 L 1.0625 -8.953125 L 7.828125 -8.953125 L 7.828125 -7.296875 L 3.125 -7.296875 L 3.125 -5.34375 L 7.28125 -5.34375 L 7.28125 -3.734375 L 3.125 -3.734375 L 3.125 -1.65625 Z M 8 -1.65625 "/></g></g></g><g fill="#2563eb" fill-opacity="1"><g transform="translate(94.009848, 24.196357)"><g><path d="M 9.21875 0 L 9.203125 -5.375 L 6.5625 -0.953125 L 5.625 -0.953125 L 3 -5.265625 L 3 0 L 1.0625 0 L 1.0625 -8.953125 L 2.78125 -8.953125 L 6.125 -3.390625 L 9.4375 -8.953125 L 11.140625 -8.953125 L 11.15625 0 Z M 9.21875 0 "/></g></g></g><g fill="#2563eb" fill-opacity="1"><g transform="translate(106.814101, 24.196357)"><g><path d="M 5.359375 -3.171875 L 5.359375 0 L 3.28125 0 L 3.28125 -3.203125 L -0.171875 -8.953125 L 2.015625 -8.953125 L 4.421875 -4.984375 L 6.8125 -8.953125 L 8.84375 -8.953125 Z M 5.359375 -3.171875 "/></g></g></g><g fill="#000000" fill-opacity="1"><g transform="translate(42.396123, 31.564852)"><g><path d="M 1.921875 0.03125 C 1.609375 0.03125 1.320312 -0.0390625 1.0625 -0.1875 C 0.800781 -0.332031 0.597656 -0.523438 0.453125 -0.765625 C 0.304688 -1.015625 0.234375 -1.296875 0.234375 -1.609375 C 0.234375 -1.921875 0.304688 -2.195312 0.453125 -2.4375 C 0.597656 -2.6875 0.800781 -2.882812 1.0625 -3.03125 C 1.320312 -3.175781 1.609375 -3.25 1.921875 -3.25 C 2.242188 -3.25 2.53125 -3.175781 2.78125 -3.03125 C 3.039062 -2.894531 3.242188 -2.703125 3.390625 -2.453125 C 3.535156 -2.203125 3.609375 -1.921875 3.609375 -1.609375 C 3.609375 -1.296875 3.535156 -1.015625 3.390625 -0.765625 C 3.242188 -0.515625 3.039062 -0.316406 2.78125 -0.171875 C 2.53125 -0.0351562 2.242188 0.03125 1.921875 0.03125 Z M 1.921875 -0.28125 C 2.179688 -0.28125 2.410156 -0.335938 2.609375 -0.453125 C 2.816406 -0.566406 2.976562 -0.722656 3.09375 -0.921875 C 3.21875 -1.128906 3.28125 -1.359375 3.28125 -1.609375 C 3.28125 -1.859375 3.21875 -2.082031 3.09375 -2.28125 C 2.976562 -2.488281 2.816406 -2.648438 2.609375 -2.765625 C 2.410156 -2.878906 2.179688 -2.9375 1.921875 -2.9375 C 1.671875 -2.9375 1.441406 -2.878906 1.234375 -2.765625 C 1.023438 -2.648438 0.863281 -2.488281 0.75 -2.28125 C 0.632812 -2.082031 0.578125 -1.859375 0.578125 -1.609375 C 0.578125 -1.359375 0.632812 -1.128906 0.75 -0.921875 C 0.863281 -0.722656 1.023438 -0.566406 1.234375 -0.453125 C 1.441406 -0.335938 1.671875 -0.28125 1.921875 -0.28125 Z M 1.921875 -0.28125 "/></g></g></g><g fill="#000000" fill-opacity="1"><g transform="translate(47.361732, 31.564852)"><g><path d="M 3.21875 -3.21875 L 3.21875 0 L 2.9375 0 L 0.859375 -2.609375 L 0.859375 0 L 0.53125 0 L 0.53125 -3.21875 L 0.796875 -3.21875 L 2.875 -0.609375 L 2.875 -3.21875 Z M 3.21875 -3.21875 "/></g></g></g><g fill="#000000" fill-opacity="1"><g transform="translate(52.208164, 31.564852)"><g><path d="M 0.53125 -3.21875 L 0.859375 -3.21875 L 0.859375 -0.296875 L 2.671875 -0.296875 L 2.671875 0 L 0.53125 0 Z M 0.53125 -3.21875 "/></g></g></g><g fill="#000000" fill-opacity="1"><g transform="translate(56.027799, 31.564852)"><g><path d="M 0.53125 -3.21875 L 0.859375 -3.21875 L 0.859375 0 L 0.53125 0 Z M 0.53125 -3.21875 "/></g></g></g><g fill="#000000" fill-opacity="1"><g transform="translate(58.531856, 31.564852)"><g><path d="M 3.21875 -3.21875 L 3.21875 0 L 2.9375 0 L 0.859375 -2.609375 L 0.859375 0 L 0.53125 0 L 0.53125 -3.21875 L 0.796875 -3.21875 L 2.875 -0.609375 L 2.875 -3.21875 Z M 3.21875 -3.21875 "/></g></g></g><g fill="#000000" fill-opacity="1"><g transform="translate(63.378288, 31.564852)"><g><path d="M 2.796875 -0.296875 L 2.796875 0 L 0.53125 0 L 0.53125 -3.21875 L 2.734375 -3.21875 L 2.734375 -2.921875 L 0.859375 -2.921875 L 0.859375 -1.78125 L 2.53125 -1.78125 L 2.53125 -1.484375 L 0.859375 -1.484375 L 0.859375 -0.296875 Z M 2.796875 -0.296875 "/></g></g></g><g fill="#000000" fill-opacity="1"><g transform="translate(67.56464, 31.564852)"><g/></g></g><g fill="#000000" fill-opacity="1"><g transform="translate(69.885345, 31.564852)"><g><path d="M 1.734375 -3.21875 C 2.140625 -3.21875 2.457031 -3.117188 2.6875 -2.921875 C 2.925781 -2.722656 3.046875 -2.453125 3.046875 -2.109375 C 3.046875 -1.765625 2.925781 -1.492188 2.6875 -1.296875 C 2.457031 -1.109375 2.140625 -1.015625 1.734375 -1.015625 L 0.859375 -1.015625 L 0.859375 0 L 0.53125 0 L 0.53125 -3.21875 Z M 1.71875 -1.3125 C 2.039062 -1.3125 2.285156 -1.378906 2.453125 -1.515625 C 2.617188 -1.660156 2.703125 -1.859375 2.703125 -2.109375 C 2.703125 -2.367188 2.617188 -2.566406 2.453125 -2.703125 C 2.285156 -2.847656 2.039062 -2.921875 1.71875 -2.921875 L 0.859375 -2.921875 L 0.859375 -1.3125 Z M 1.71875 -1.3125 "/></g></g></g><g fill="#000000" fill-opacity="1"><g transform="translate(74.296306, 31.564852)"><g><path d="M 0.53125 -3.21875 L 0.859375 -3.21875 L 0.859375 -0.296875 L 2.671875 -0.296875 L 2.671875 0 L 0.53125 0 Z M 0.53125 -3.21875 "/></g></g></g><g fill="#000000" fill-opacity="1"><g transform="translate(78.115942, 31.564852)"><g><path d="M 2.546875 -0.859375 L 0.75 -0.859375 L 0.359375 0 L 0.015625 0 L 1.484375 -3.21875 L 1.8125 -3.21875 L 3.28125 0 L 2.921875 0 Z M 2.421875 -1.140625 L 1.640625 -2.859375 L 0.875 -1.140625 Z M 2.421875 -1.140625 "/></g></g></g><g fill="#000000" fill-opacity="1"><g transform="translate(82.522318, 31.564852)"><g><path d="M 1.15625 -2.921875 L 0.015625 -2.921875 L 0.015625 -3.21875 L 2.625 -3.21875 L 2.625 -2.921875 L 1.484375 -2.921875 L 1.484375 0 L 1.15625 0 Z M 1.15625 -2.921875 "/></g></g></g><g fill="#000000" fill-opacity="1"><g transform="translate(86.273199, 31.564852)"><g><path d="M 0.859375 -2.921875 L 0.859375 -1.65625 L 2.53125 -1.65625 L 2.53125 -1.359375 L 0.859375 -1.359375 L 0.859375 0 L 0.53125 0 L 0.53125 -3.21875 L 2.734375 -3.21875 L 2.734375 -2.921875 Z M 0.859375 -2.921875 "/></g></g></g><g fill="#000000" fill-opacity="1"><g transform="translate(90.294528, 31.564852)"><g><path d="M 1.921875 0.03125 C 1.609375 0.03125 1.320312 -0.0390625 1.0625 -0.1875 C 0.800781 -0.332031 0.597656 -0.523438 0.453125 -0.765625 C 0.304688 -1.015625 0.234375 -1.296875 0.234375 -1.609375 C 0.234375 -1.921875 0.304688 -2.195312 0.453125 -2.4375 C 0.597656 -2.6875 0.800781 -2.882812 1.0625 -3.03125 C 1.320312 -3.175781 1.609375 -3.25 1.921875 -3.25 C 2.242188 -3.25 2.53125 -3.175781 2.78125 -3.03125 C 3.039062 -2.894531 3.242188 -2.703125 3.390625 -2.453125 C 3.535156 -2.203125 3.609375 -1.921875 3.609375 -1.609375 C 3.609375 -1.296875 3.535156 -1.015625 3.390625 -0.765625 C 3.242188 -0.515625 3.039062 -0.316406 2.78125 -0.171875 C 2.53125 -0.0351562 2.242188 0.03125 1.921875 0.03125 Z M 1.921875 -0.28125 C 2.179688 -0.28125 2.410156 -0.335938 2.609375 -0.453125 C 2.816406 -0.566406 2.976562 -0.722656 3.09375 -0.921875 C 3.21875 -1.128906 3.28125 -1.359375 3.28125 -1.609375 C 3.28125 -1.859375 3.21875 -2.082031 3.09375 -2.28125 C 2.976562 -2.488281 2.816406 -2.648438 2.609375 -2.765625 C 2.410156 -2.878906 2.179688 -2.9375 1.921875 -2.9375 C 1.671875 -2.9375 1.441406 -2.878906 1.234375 -2.765625 C 1.023438 -2.648438 0.863281 -2.488281 0.75 -2.28125 C 0.632812 -2.082031 0.578125 -1.859375 0.578125 -1.609375 C 0.578125 -1.359375 0.632812 -1.128906 0.75 -0.921875 C 0.863281 -0.722656 1.023438 -0.566406 1.234375 -0.453125 C 1.441406 -0.335938 1.671875 -0.28125 1.921875 -0.28125 Z M 1.921875 -0.28125 "/></g></g></g><g fill="#000000" fill-opacity="1"><g transform="translate(95.260136, 31.564852)"><g><path d="M 2.71875 0 L 1.984375 -1.03125 C 1.898438 -1.019531 1.816406 -1.015625 1.734375 -1.015625 L 0.859375 -1.015625 L 0.859375 0 L 0.53125 0 L 0.53125 -3.21875 L 1.734375 -3.21875 C 2.140625 -3.21875 2.457031 -3.117188 2.6875 -2.921875 C 2.925781 -2.722656 3.046875 -2.453125 3.046875 -2.109375 C 3.046875 -1.859375 2.976562 -1.644531 2.84375 -1.46875 C 2.71875 -1.300781 2.539062 -1.179688 2.3125 -1.109375 L 3.09375 0 Z M 1.71875 -1.3125 C 2.039062 -1.3125 2.285156 -1.378906 2.453125 -1.515625 C 2.617188 -1.660156 2.703125 -1.859375 2.703125 -2.109375 C 2.703125 -2.367188 2.617188 -2.566406 2.453125 -2.703125 C 2.285156 -2.847656 2.039062 -2.921875 1.71875 -2.921875 L 0.859375 -2.921875 L 0.859375 -1.3125 Z M 1.71875 -1.3125 "/></g></g></g><g fill="#000000" fill-opacity="1"><g transform="translate(99.694013, 31.564852)"><g><path d="M 3.859375 -3.21875 L 3.859375 0 L 3.53125 0 L 3.53125 -2.578125 L 2.28125 -0.40625 L 2.109375 -0.40625 L 0.84375 -2.5625 L 0.84375 0 L 0.53125 0 L 0.53125 -3.21875 L 0.796875 -3.21875 L 2.203125 -0.828125 L 3.578125 -3.21875 Z M 3.859375 -3.21875 "/></g></g></g></svg>